<?xml version="1.0" standalone="no"?>
<svg height="777.000000pt" preserveAspectRatio="xMidYMid meet" version="1.0"
    viewBox="0 0 500.000000 777.000000" width="500.000000pt" xmlns="http://www.w3.org/2000/svg">
    <g fill="#000000" stroke="none"
        transform="translate(0.000000,777.000000) scale(0.100000,-0.100000)">
        <path style="fill: rgb(162, 52, 236);" d="M998 7184 l-998 -577 0 -573 c0 -316 2 -574 5 -574 2 0 28 14 57 31
29 17 447 259 928 537 481 278 906 523 943 545 l68 39 192 -110 c106 -61 554
-320 997 -576 l805 -465 3 571 c1 315 -1 575 -5 579 -12 11 -1984 1149 -1992
1149 -3 0 -455 -260 -1003 -576z" />
        <path d="M518 4482 l-518 -2 0 -1378 c1 -1576 2 -1599 87 -1882 129 -430 427
-776 853 -990 411 -206 975 -278 1505 -190 446 73 817 259 1100 551 190 196
311 413 385 691 68 259 64 151 67 1753 l4 1450 -523 -2 -523 -3 -5 -1367 c-5
-1044 -9 -1379 -18 -1413 -64 -230 -134 -354 -280 -491 -128 -120 -311 -209
-493 -239 -292 -47 -611 48 -816 244 -133 125 -209 256 -261 445 l-27 96 -3
1360 c-1 748 -6 1362 -10 1365 -4 3 -240 4 -524 2z" />
        <path d="M4050 586 l0 -45 63 2 62 2 3 -208 2 -207 45 0 45 0 2 206 3 206 65
2 65 1 0 40 0 40 -177 3 -178 2 0 -44z" />
        <path d="M4490 380 l0 -250 45 0 45 0 0 163 0 162 75 -114 c41 -63 79 -119 84
-124 6 -6 40 38 90 114 l81 124 0 -162 0 -163 45 0 45 0 0 250 0 250 -38 0
-39 0 -88 -140 -89 -140 -77 120 c-43 66 -83 129 -89 140 -8 15 -21 20 -50 20
l-40 0 0 -250z" />
    </g>
</svg>